<?xml version="1.0" encoding="utf-8"?>
<!-- Generator: Adobe Illustrator 16.0.0, SVG Export Plug-In . SVG Version: 6.00 Build 0)  -->
<!DOCTYPE svg PUBLIC "-//W3C//DTD SVG 1.1//EN" "http://www.w3.org/Graphics/SVG/1.1/DTD/svg11.dtd">
<svg version="1.1" id="Capa_1" xmlns="http://www.w3.org/2000/svg" xmlns:xlink="http://www.w3.org/1999/xlink" x="0px" y="0px"
	 width="100px" height="100px" viewBox="0 0 100 100" enable-background="new 0 0 100 100" xml:space="preserve">
<g>
	<path fill="#FF0000" d="M80.048,19.898C63.377,3.209,36.333,3.195,19.644,19.867S2.941,63.582,19.612,80.271
		c0.041,0.04,0.082,0.077,0.123,0.117l60.43-60.366C80.125,19.981,80.089,19.938,80.048,19.898z"/>
	<path fill="#006837" d="M80.017,80.304c16.648-16.632,16.7-43.583,0.148-60.282l-60.43,60.366
		C36.417,96.957,63.368,96.935,80.017,80.304z"/>
</g>
<polygon fill="#FFFFFF" points="50.155,27.517 55.186,43 71.466,43 58.295,52.606 63.326,68.109 50.155,58.549 36.984,68.123 
	42.015,52.604 28.844,43 45.124,43 "/>
</svg>
