<?xml version="1.0" encoding="utf-8"?>
<!-- Generator: Adobe Illustrator 16.0.0, SVG Export Plug-In . SVG Version: 6.00 Build 0)  -->
<!DOCTYPE svg PUBLIC "-//W3C//DTD SVG 1.1//EN" "http://www.w3.org/Graphics/SVG/1.1/DTD/svg11.dtd">
<svg version="1.1" id="Capa_1" xmlns="http://www.w3.org/2000/svg" xmlns:xlink="http://www.w3.org/1999/xlink" x="0px" y="0px"
	 width="100px" height="100px" viewBox="0 0 100 100" enable-background="new 0 0 100 100" xml:space="preserve">
<g>
	<path fill="#1B1464" d="M5.221,50C5.221,74.179,25,93.779,49,93.779V6.221C25,6.221,5.221,25.821,5.221,50z"/>
	<path fill="#F2F2F2" stroke="#CCCCCC" stroke-miterlimit="10" d="M48.5,6.221v87.559c25,0,43.779-19.601,43.779-43.779
		S73.5,6.221,48.5,6.221z"/>
</g>
<g>
	<polygon fill="#F2F2F2" points="43.063,45 26.596,45 39.918,54.187 34.838,69.472 48,59.831 48,29.388 	"/>
	<polygon fill="#1B1464" points="69.709,45 53.241,45 48.161,29.102 48,29.388 48,59.831 48.161,59.708 61.479,69.456 
		56.388,54.169 	"/>
</g>
</svg>
