<?xml version="1.0" encoding="utf-8"?>
<!-- Generator: Adobe Illustrator 16.0.0, SVG Export Plug-In . SVG Version: 6.00 Build 0)  -->
<!DOCTYPE svg PUBLIC "-//W3C//DTD SVG 1.1//EN" "http://www.w3.org/Graphics/SVG/1.1/DTD/svg11.dtd">
<svg version="1.1" id="Capa_1" xmlns="http://www.w3.org/2000/svg" xmlns:xlink="http://www.w3.org/1999/xlink" x="0px" y="0px"
	 width="100px" height="100px" viewBox="0 0 100 100" enable-background="new 0 0 100 100" xml:space="preserve">
<circle fill="#1B1464" cx="50" cy="50" r="44.797"/>
<circle fill="#FBB03B" cx="50" cy="50" r="41.915"/>
<circle fill="#FFFFFF" cx="50" cy="50" r="39.712"/>
<g>
	<path fill="#1B1464" d="M33.637,45.164c-0.119,1.051-0.18,2.153-0.18,3.309c0,12.36,6.444,18.659,17.792,18.659
		c4.12,0,6.939,0.422,8.384-0.302V52.304H53.73v-7.06h13.045v25.417c-2.818,1.012-9.383,2.674-15.96,2.674
		c-7.372,0-13.443-1.879-18.213-6.432c-4.192-4.047-6.794-10.553-6.794-18.141c0.007-1.456,0.114-2.872,0.316-4.243 M28.044,37.795
		C31.852,29.191,40.35,23.61,52.188,23.61c5.639,0,10.048,1.229,12.144,2.24l-1.518,5.132c-2.602-1.157-5.855-1.096-10.771-1.096
		c-7.747,0-13.308,2.722-16.229,8.019"/>
</g>
<text transform="matrix(1 0 0 1 19.75 44.5)" fill="#1B1464" font-family="'MyriadPro-Regular'" font-size="12">Guadalupe</text>
</svg>
