<?xml version="1.0" encoding="utf-8"?>
<!-- Generator: Adobe Illustrator 16.0.0, SVG Export Plug-In . SVG Version: 6.00 Build 0)  -->
<!DOCTYPE svg PUBLIC "-//W3C//DTD SVG 1.1//EN" "http://www.w3.org/Graphics/SVG/1.1/DTD/svg11.dtd">
<svg version="1.1" id="Capa_2" xmlns="http://www.w3.org/2000/svg" xmlns:xlink="http://www.w3.org/1999/xlink" x="0px" y="0px"
	 width="100px" height="100px" viewBox="0 0 100 100" enable-background="new 0 0 100 100" xml:space="preserve">
<path fill="#FFFFFF" stroke="#CCCCCC" stroke-width="0.5" stroke-miterlimit="10" d="M14.879,13.064
	c0,0-21.402,63.813,36.379,83.266c0,0,33.853-10.305,38.717-42.793c0,0,3.696-16.162-2.725-40.473c0,0-11.477,0.98-14.396-1.938
	c0,0-8.652-7.976-21.836-6.809c0,0-12.017-0.779-18.631,4.474C32.388,8.791,29.081,13.835,14.879,13.064z"/>
<linearGradient id="SVGID_1_" gradientUnits="userSpaceOnUse" x1="51.0176" y1="93.2793" x2="51.0176" y2="7.2515">
	<stop  offset="0" style="stop-color:#FFFFFF"/>
	<stop  offset="1" style="stop-color:#000000"/>
</linearGradient>
<path fill="url(#SVGID_1_)" d="M17.272,15.528c0,0-19.984,59.586,33.97,77.751c0,0,31.61-9.622,36.152-39.959
	c0,0,3.451-15.092-2.544-37.792c0,0-10.717,0.915-13.442-1.81c0,0-8.079-7.448-20.39-6.358c0,0-11.221-0.728-17.397,4.178
	C33.622,11.538,30.534,16.248,17.272,15.528z"/>
<path fill="#FBB03B" d="M19.533,17.855c0,0-18.646,55.594,31.694,72.542c0,0,29.492-8.978,33.729-37.282
	c0,0,3.221-14.08-2.373-35.26c0,0-9.999,0.854-12.542-1.688c0,0-7.538-6.949-19.023-5.932c0,0-10.469-0.679-16.231,3.898
	C34.787,14.132,31.906,18.527,19.533,17.855z"/>
<path fill="#FFFFFF" d="M20.766,19.124c0,0-17.916,53.418,30.453,69.703c0,0,28.338-8.625,32.41-35.822c0,0,3.094-13.529-2.28-33.88
	c0,0-9.607,0.82-12.051-1.623c0,0-7.244-6.676-18.279-5.7c0,0-10.059-0.652-15.596,3.746C35.422,15.547,32.654,19.77,20.766,19.124z
	"/>
<g>
	<path d="M35.971,16.767c0,0-2.671,4.074-14.142,3.451c0,0-17.286,51.541,29.383,67.252l-0.193-74.317
		C51.019,13.153,41.313,12.524,35.971,16.767z"/>
	<path fill="#FBB03B" d="M80.282,20.218c0,0-9.27,0.792-11.627-1.565c0,0-6.989-6.442-17.637-5.5l0.193,74.317
		c0,0,27.342-8.322,31.271-34.563C82.482,52.907,85.468,39.854,80.282,20.218z"/>
</g>
<path fill="#FBB03B" d="M39.936,82.318c0,0,2.168-7.215,3.585-7.799c0,0,0.239-4.009,1.239-4.676c0,0-3.504-2.589-3.504-3.506
	c0,0,1.872-2.336,5.122-2.669L51,59h2l6.209-8.334L61,52.916V57l3.207-2.167l0.793,1.5V58l-2.587,3.666c0,0-0.5,4.25-1.417,4.75
	l-0.25,5.833c0,0,2.354,2.161,2.771,9.078c0,0-8.919,6.175-12.438,6.339C48.014,87.809,39.936,82.318,39.936,82.318z"/>
<path d="M41.279,80.888c0,0,1.934-6.434,3.198-6.955c0,0,0.212-3.575,1.104-4.17c0,0-3.125-2.309-3.125-3.126
	c0,0,1.669-2.13,4.568-2.427L51.146,60h1.784l5.505-7.387L60,54.666v3.643l2.576-1.933L63,57.714V59.2l-1.992,3.27
	c0,0-0.287,3.79-1.104,4.236l-0.145,5.202c0,0,2.138,1.927,2.51,8.096c0,0-7.934,5.507-11.072,5.653
	C48.463,85.784,41.279,80.888,41.279,80.888z"/>
<g>
	<g>
		<path fill="#FBB03B" stroke="#000000" stroke-width="2" stroke-miterlimit="10" d="M36.499,41.857h1.571v6.752h2.075v1.331h-3.646
			V41.857z"/>
		<path fill="#FBB03B" stroke="#000000" stroke-width="2" stroke-miterlimit="10" d="M42.63,41.857v8.083h-1.571v-8.083H42.63z"/>
		<path fill="#FBB03B" stroke="#000000" stroke-width="2" stroke-miterlimit="10" d="M44.035,41.977
			c0.479-0.107,1.103-0.156,1.787-0.156c0.756,0,1.487,0.097,2.051,0.576c0.432,0.359,0.611,0.899,0.611,1.463
			c0,0.721-0.372,1.416-1.175,1.764v0.048c0.936,0.264,1.439,1.044,1.439,1.931c0,0.672-0.216,1.188-0.6,1.584
			C47.668,49.713,46.853,50,45.498,50c-0.6,0-1.104-0.035-1.463-0.084V41.977z M45.605,45.18h0.336c0.564,0,0.996-0.48,0.996-1.141
			c0-0.587-0.276-1.043-0.924-1.043c-0.167,0-0.312,0.012-0.408,0.049V45.18z M45.605,48.766c0.096,0.023,0.204,0.023,0.348,0.023
			c0.635,0,1.163-0.384,1.163-1.211c0-0.805-0.552-1.224-1.175-1.236h-0.336V48.766z"/>
		<path fill="#FBB03B" stroke="#000000" stroke-width="2" stroke-miterlimit="10" d="M53.248,46.391h-1.847v2.183h2.087v1.367
			h-3.658v-8.083h3.513v1.367h-1.942v1.858h1.847V46.391z"/>
		<path fill="#FBB03B" stroke="#000000" stroke-width="2" stroke-miterlimit="10" d="M54.559,41.977
			c0.492-0.096,1.115-0.156,1.715-0.156c0.863,0,1.631,0.121,2.158,0.6c0.492,0.444,0.637,0.984,0.637,1.68
			c0,0.863-0.42,1.643-1.248,2.027v0.023c0.553,0.216,0.828,0.732,0.984,1.596c0.155,0.898,0.371,1.895,0.516,2.194h-1.644
			c-0.097-0.228-0.276-1.044-0.396-1.931c-0.145-1.008-0.396-1.295-0.924-1.295h-0.229v3.226h-1.57V41.977z M56.129,45.503h0.276
			c0.684,0,1.079-0.552,1.079-1.259c0-0.684-0.275-1.176-0.982-1.199c-0.133,0-0.289,0.012-0.373,0.047V45.503z"/>
		<path fill="#FBB03B" stroke="#000000" stroke-width="2" stroke-miterlimit="10" d="M61.77,41.857v8.083h-1.571v-8.083H61.77z"/>
		<path fill="#FBB03B" stroke="#000000" stroke-width="2" stroke-miterlimit="10" d="M64.457,48.094l-0.359,1.847h-1.523
			l1.752-8.083h1.883l1.57,8.083h-1.523l-0.348-1.847H64.457z M65.765,46.87l-0.264-1.69c-0.084-0.492-0.192-1.296-0.265-1.836
			h-0.035c-0.084,0.54-0.204,1.379-0.288,1.848l-0.3,1.679H65.765z"/>
	</g>
	<g>
		<path fill="#FBB03B" d="M36.499,41.857h1.571v6.752h2.075v1.331h-3.646V41.857z"/>
		<path fill="#FBB03B" d="M42.63,41.857v8.083h-1.571v-8.083H42.63z"/>
		<path fill="#FBB03B" d="M44.035,41.977c0.479-0.107,1.103-0.156,1.787-0.156c0.756,0,1.487,0.097,2.051,0.576
			c0.432,0.359,0.611,0.899,0.611,1.463c0,0.721-0.372,1.416-1.175,1.764v0.048c0.936,0.264,1.439,1.044,1.439,1.931
			c0,0.672-0.216,1.188-0.6,1.584C47.668,49.713,46.853,50,45.498,50c-0.6,0-1.104-0.035-1.463-0.084V41.977z M45.605,45.18h0.336
			c0.564,0,0.996-0.48,0.996-1.141c0-0.587-0.276-1.043-0.924-1.043c-0.167,0-0.312,0.012-0.408,0.049V45.18z M45.605,48.766
			c0.096,0.023,0.204,0.023,0.348,0.023c0.635,0,1.163-0.384,1.163-1.211c0-0.805-0.552-1.224-1.175-1.236h-0.336V48.766z"/>
		<path fill="#FBB03B" d="M53.248,46.391h-1.847v2.183h2.087v1.367h-3.658v-8.083h3.513v1.367h-1.942v1.858h1.847V46.391z"/>
		<path fill="#FBB03B" d="M54.559,41.977c0.492-0.096,1.115-0.156,1.715-0.156c0.863,0,1.631,0.121,2.158,0.6
			c0.492,0.444,0.637,0.984,0.637,1.68c0,0.863-0.42,1.643-1.248,2.027v0.023c0.553,0.216,0.828,0.732,0.984,1.596
			c0.155,0.898,0.371,1.895,0.516,2.194h-1.644c-0.097-0.228-0.276-1.044-0.396-1.931c-0.145-1.008-0.396-1.295-0.924-1.295h-0.229
			v3.226h-1.57V41.977z M56.129,45.503h0.276c0.684,0,1.079-0.552,1.079-1.259c0-0.684-0.275-1.176-0.982-1.199
			c-0.133,0-0.289,0.012-0.373,0.047V45.503z"/>
		<path fill="#FBB03B" d="M61.77,41.857v8.083h-1.571v-8.083H61.77z"/>
		<path fill="#FBB03B" d="M64.457,48.094l-0.359,1.847h-1.523l1.752-8.083h1.883l1.57,8.083h-1.523l-0.348-1.847H64.457z
			 M65.765,46.87l-0.264-1.69c-0.084-0.492-0.192-1.296-0.265-1.836h-0.035c-0.084,0.54-0.204,1.379-0.288,1.848l-0.3,1.679H65.765z
			"/>
	</g>
</g>
<g>
	<g>
		<g>
			<path fill="#FBB03B" stroke="#FBB03B" stroke-miterlimit="10" d="M41.008,35.904c-0.161-0.383-0.387-0.902-0.531-1.346
				c-0.007,0.002-0.014,0.005-0.021,0.007c0.071,0.471,0.131,1.022,0.161,1.371c0.05,0.538,0.106,1.074,0.17,1.608
				c-0.201,0.078-0.4,0.158-0.599,0.241c-0.316-0.423-0.639-0.843-0.968-1.26c-0.226-0.284-0.567-0.729-0.83-1.13
				c-0.007,0.003-0.014,0.006-0.021,0.009c0.178,0.438,0.375,0.955,0.525,1.363c0.182,0.473,0.365,0.945,0.55,1.417
				c-0.239,0.107-0.477,0.219-0.713,0.333c-0.532-1.361-1.048-2.729-1.549-4.104c0.335-0.157,0.671-0.309,1.01-0.454
				c0.34,0.428,0.674,0.859,1.002,1.294c0.344,0.455,0.643,0.858,0.906,1.283c0.004-0.002,0.009-0.003,0.013-0.005
				c-0.113-0.479-0.191-0.977-0.263-1.541c-0.065-0.54-0.124-1.082-0.176-1.625c0.344-0.128,0.689-0.25,1.036-0.366
				c0.565,1.347,1.117,2.7,1.655,4.057c-0.255,0.083-0.51,0.169-0.763,0.259C41.406,36.846,41.208,36.375,41.008,35.904z"/>
			<path fill="#FBB03B" stroke="#FBB03B" stroke-miterlimit="10" d="M42.712,32.401c0.243,0.916,0.485,1.831,0.728,2.746
				c0.166,0.62,0.418,0.753,0.65,0.696c0.258-0.064,0.402-0.277,0.254-0.921c-0.214-0.922-0.428-1.845-0.643-2.768
				c0.336-0.078,0.673-0.15,1.011-0.218c0.175,0.88,0.351,1.76,0.526,2.64c0.213,1.104-0.104,1.778-0.961,1.989
				c-0.929,0.234-1.469-0.247-1.79-1.299c-0.258-0.861-0.516-1.723-0.773-2.584C42.045,32.584,42.378,32.49,42.712,32.401z"/>
			<path fill="#FBB03B" stroke="#FBB03B" stroke-miterlimit="10" d="M46.322,36.084c-0.246-1.436-0.492-2.872-0.737-4.309
				c0.311-0.053,0.622-0.102,0.933-0.146c0.35,0.526,0.687,1.059,1.009,1.596c0.188,0.317,0.488,0.853,0.66,1.214
				c0.004,0,0.009-0.001,0.014-0.001c-0.073-0.455-0.215-1.204-0.297-2.004c-0.032-0.32-0.065-0.641-0.098-0.961
				c0.3-0.03,0.6-0.057,0.901-0.079c0.107,1.453,0.214,2.906,0.321,4.359c-0.271,0.02-0.543,0.044-0.814,0.072
				c-0.29-0.526-0.592-1.049-0.908-1.566c-0.203-0.347-0.505-0.862-0.674-1.237c-0.005,0.001-0.01,0.001-0.015,0.002
				c0.086,0.433,0.218,1.095,0.342,1.961c0.046,0.326,0.093,0.651,0.139,0.977C46.839,36,46.581,36.041,46.322,36.084z"/>
			<path fill="#FBB03B" stroke="#FBB03B" stroke-miterlimit="10" d="M50.64,31.31c0.021,1.457,0.042,2.914,0.064,4.371
				c-0.297,0.004-0.594,0.013-0.891,0.027c-0.067-1.456-0.134-2.911-0.201-4.366C49.954,31.325,50.297,31.314,50.64,31.31z"/>
			<path fill="#FBB03B" stroke="#FBB03B" stroke-miterlimit="10" d="M53.7,35.729c-0.135,0.047-0.389,0.071-0.701,0.05
				c-1.155-0.072-1.71-0.979-1.713-2.222c-0.007-1.648,1.111-2.286,2.148-2.208c0.36,0.025,0.607,0.107,0.702,0.175
				c-0.079,0.231-0.156,0.463-0.233,0.695c-0.111-0.055-0.237-0.104-0.46-0.121c-0.57-0.042-1.104,0.354-1.141,1.437
				c-0.035,1.043,0.374,1.465,0.927,1.505c0.153,0.011,0.33-0.007,0.444-0.029C53.684,35.25,53.692,35.489,53.7,35.729z"/>
			<path fill="#FBB03B" stroke="#FBB03B" stroke-miterlimit="10" d="M55.673,31.624c-0.202,1.443-0.404,2.886-0.606,4.329
				c-0.295-0.041-0.591-0.078-0.887-0.11c0.157-1.449,0.314-2.897,0.471-4.346C54.992,31.534,55.333,31.576,55.673,31.624z"/>
			<path fill="#FBB03B" stroke="#FBB03B" stroke-miterlimit="10" d="M56.57,31.827c0.296-0.003,0.689,0.036,1.076,0.115
				c0.604,0.123,1.059,0.304,1.328,0.645c0.25,0.297,0.29,0.685,0.196,1.042c-0.122,0.458-0.366,0.735-0.675,0.912
				c-0.369,0.201-0.876,0.217-1.257,0.138c-0.064-0.013-0.128-0.026-0.185-0.038c-0.107,0.532-0.215,1.064-0.321,1.596
				c-0.293-0.059-0.586-0.113-0.88-0.163C56.092,34.658,56.331,33.243,56.57,31.827z M57.191,33.96
				c0.041,0.022,0.093,0.033,0.149,0.044c0.477,0.099,0.761-0.145,0.854-0.544c0.087-0.372-0.027-0.707-0.488-0.804
				c-0.091-0.019-0.185-0.025-0.249-0.019C57.369,33.079,57.28,33.519,57.191,33.96z"/>
			<path fill="#FBB03B" stroke="#FBB03B" stroke-miterlimit="10" d="M59.617,35.931c-0.164,0.298-0.326,0.598-0.486,0.898
				c-0.279-0.082-0.56-0.16-0.84-0.233c0.69-1.326,1.43-2.633,2.216-3.918c0.397,0.119,0.793,0.245,1.187,0.379
				c-0.141,1.491-0.327,2.973-0.558,4.443c-0.273-0.103-0.548-0.201-0.823-0.295c0.044-0.337,0.086-0.674,0.125-1.012
				C60.165,36.101,59.892,36.014,59.617,35.931z M60.564,35.538c0.045-0.307,0.089-0.613,0.131-0.92
				c0.031-0.269,0.099-0.704,0.145-0.996c-0.008-0.002-0.016-0.005-0.022-0.007c-0.142,0.262-0.35,0.672-0.475,0.898
				c-0.149,0.271-0.298,0.542-0.443,0.813C60.122,35.394,60.344,35.464,60.564,35.538z"/>
			<path fill="#FBB03B" stroke="#FBB03B" stroke-miterlimit="10" d="M63.225,33.621c0.324,0.129,0.647,0.263,0.968,0.402
				c-0.485,1.117-0.97,2.233-1.455,3.349c0.377,0.164,0.751,0.335,1.122,0.516c-0.105,0.216-0.21,0.432-0.314,0.647
				c-0.637-0.309-1.281-0.593-1.934-0.852C62.149,36.33,62.688,34.976,63.225,33.621z"/>
		</g>
		<g>
			<path d="M41.008,35.904c-0.161-0.383-0.387-0.902-0.531-1.346c-0.007,0.002-0.014,0.005-0.021,0.007
				c0.071,0.471,0.131,1.022,0.161,1.371c0.05,0.538,0.106,1.074,0.17,1.608c-0.201,0.078-0.4,0.158-0.599,0.241
				c-0.316-0.423-0.639-0.843-0.968-1.26c-0.226-0.284-0.567-0.729-0.83-1.13c-0.007,0.003-0.014,0.006-0.021,0.009
				c0.178,0.438,0.375,0.955,0.525,1.363c0.182,0.473,0.365,0.945,0.55,1.417c-0.239,0.107-0.477,0.219-0.713,0.333
				c-0.532-1.361-1.048-2.729-1.549-4.104c0.335-0.157,0.671-0.309,1.01-0.454c0.34,0.428,0.674,0.859,1.002,1.294
				c0.344,0.455,0.643,0.858,0.906,1.283c0.004-0.002,0.009-0.003,0.013-0.005c-0.113-0.479-0.191-0.977-0.263-1.541
				c-0.065-0.54-0.124-1.082-0.176-1.625c0.344-0.128,0.689-0.25,1.036-0.366c0.565,1.347,1.117,2.7,1.655,4.057
				c-0.255,0.083-0.51,0.169-0.763,0.259C41.406,36.846,41.208,36.375,41.008,35.904z"/>
			<path d="M42.712,32.401c0.243,0.916,0.485,1.831,0.728,2.746c0.166,0.62,0.418,0.753,0.65,0.696
				c0.258-0.064,0.402-0.277,0.254-0.921c-0.214-0.922-0.428-1.845-0.643-2.768c0.336-0.078,0.673-0.15,1.011-0.218
				c0.175,0.88,0.351,1.76,0.526,2.64c0.213,1.104-0.104,1.778-0.961,1.989c-0.929,0.234-1.469-0.247-1.79-1.299
				c-0.258-0.861-0.516-1.723-0.773-2.584C42.045,32.584,42.378,32.49,42.712,32.401z"/>
			<path d="M46.322,36.084c-0.246-1.436-0.492-2.872-0.737-4.309c0.311-0.053,0.622-0.102,0.933-0.146
				c0.35,0.526,0.687,1.059,1.009,1.596c0.188,0.317,0.488,0.853,0.66,1.214c0.004,0,0.009-0.001,0.014-0.001
				c-0.073-0.455-0.215-1.204-0.297-2.004c-0.032-0.32-0.065-0.641-0.098-0.961c0.3-0.03,0.6-0.057,0.901-0.079
				c0.107,1.453,0.214,2.906,0.321,4.359c-0.271,0.02-0.543,0.044-0.814,0.072c-0.29-0.526-0.592-1.049-0.908-1.566
				c-0.203-0.347-0.505-0.862-0.674-1.237c-0.005,0.001-0.01,0.001-0.015,0.002c0.086,0.433,0.218,1.095,0.342,1.961
				c0.046,0.326,0.093,0.651,0.139,0.977C46.839,36,46.581,36.041,46.322,36.084z"/>
			<path d="M50.64,31.31c0.021,1.457,0.042,2.914,0.064,4.371c-0.297,0.004-0.594,0.013-0.891,0.027
				c-0.067-1.456-0.134-2.911-0.201-4.366C49.954,31.325,50.297,31.314,50.64,31.31z"/>
			<path d="M53.7,35.729c-0.135,0.047-0.389,0.071-0.701,0.05c-1.155-0.072-1.71-0.979-1.713-2.222
				c-0.007-1.648,1.111-2.286,2.148-2.208c0.36,0.025,0.607,0.107,0.702,0.175c-0.079,0.231-0.156,0.463-0.233,0.695
				c-0.111-0.055-0.237-0.104-0.46-0.121c-0.57-0.042-1.104,0.354-1.141,1.437c-0.035,1.043,0.374,1.465,0.927,1.505
				c0.153,0.011,0.33-0.007,0.444-0.029C53.684,35.25,53.692,35.489,53.7,35.729z"/>
			<path d="M55.673,31.624c-0.202,1.443-0.404,2.886-0.606,4.329c-0.295-0.041-0.591-0.078-0.887-0.11
				c0.157-1.449,0.314-2.897,0.471-4.346C54.992,31.534,55.333,31.576,55.673,31.624z"/>
			<path d="M56.57,31.827c0.296-0.003,0.689,0.036,1.076,0.115c0.604,0.123,1.059,0.304,1.328,0.645
				c0.25,0.297,0.29,0.685,0.196,1.042c-0.122,0.458-0.366,0.735-0.675,0.912c-0.369,0.201-0.876,0.217-1.257,0.138
				c-0.064-0.013-0.128-0.026-0.185-0.038c-0.107,0.532-0.215,1.064-0.321,1.596c-0.293-0.059-0.586-0.113-0.88-0.163
				C56.092,34.658,56.331,33.243,56.57,31.827z M57.191,33.96c0.041,0.022,0.093,0.033,0.149,0.044
				c0.477,0.099,0.761-0.145,0.854-0.544c0.087-0.372-0.027-0.707-0.488-0.804c-0.091-0.019-0.185-0.025-0.249-0.019
				C57.369,33.079,57.28,33.519,57.191,33.96z"/>
			<path d="M59.617,35.931c-0.164,0.298-0.326,0.598-0.486,0.898c-0.279-0.082-0.56-0.16-0.84-0.233
				c0.69-1.326,1.43-2.633,2.216-3.918c0.397,0.119,0.793,0.245,1.187,0.379c-0.141,1.491-0.327,2.973-0.558,4.443
				c-0.273-0.103-0.548-0.201-0.823-0.295c0.044-0.337,0.086-0.674,0.125-1.012C60.165,36.101,59.892,36.014,59.617,35.931z
				 M60.564,35.538c0.045-0.307,0.089-0.613,0.131-0.92c0.031-0.269,0.099-0.704,0.145-0.996c-0.008-0.002-0.016-0.005-0.022-0.007
				c-0.142,0.262-0.35,0.672-0.475,0.898c-0.149,0.271-0.298,0.542-0.443,0.813C60.122,35.394,60.344,35.464,60.564,35.538z"/>
			<path d="M63.225,33.621c0.324,0.129,0.647,0.263,0.968,0.402c-0.485,1.117-0.97,2.233-1.455,3.349
				c0.377,0.164,0.751,0.335,1.122,0.516c-0.105,0.216-0.21,0.432-0.314,0.647c-0.637-0.309-1.281-0.593-1.934-0.852
				C62.149,36.33,62.688,34.976,63.225,33.621z"/>
		</g>
	</g>
</g>
</svg>
