<?xml version="1.0" encoding="utf-8"?>
<!-- Generator: Adobe Illustrator 16.0.0, SVG Export Plug-In . SVG Version: 6.00 Build 0)  -->
<!DOCTYPE svg PUBLIC "-//W3C//DTD SVG 1.1//EN" "http://www.w3.org/Graphics/SVG/1.1/DTD/svg11.dtd">
<svg version="1.1" id="Capa_1" xmlns="http://www.w3.org/2000/svg" xmlns:xlink="http://www.w3.org/1999/xlink" x="0px" y="0px"
	 width="100px" height="100px" viewBox="0 0 100 100" enable-background="new 0 0 100 100" xml:space="preserve">
<g>
	<linearGradient id="SVGID_1_" gradientUnits="userSpaceOnUse" x1="12.3325" y1="50" x2="87.668" y2="50">
		<stop  offset="0" style="stop-color:#6A83B0"/>
		<stop  offset="0.158" style="stop-color:#617DAB"/>
		<stop  offset="0.4199" style="stop-color:#476D9F"/>
		<stop  offset="0.5843" style="stop-color:#346196"/>
		<stop  offset="1" style="stop-color:#004C87"/>
	</linearGradient>
	<path fill="url(#SVGID_1_)" d="M12.67,29.26c0,0,16.368-14.471,36.295-26.332c0,0,22.774,12.81,38.193,27.755
		c0,0,7.724,46.907-36.94,66.388C50.218,97.071,8.163,81.448,12.67,29.26z"/>
	<path fill="#259EE8" d="M12.67,29.26c0,0,16.143-12.853,37.33-19.18c0,0,21.739,5.658,37.158,20.603c0,0,7.724,46.907-36.94,66.388
		C50.218,97.071,8.163,81.448,12.67,29.26z"/>
	<path fill="#FFFFFF" d="M13.34,29.721c0,0,15.028-12.009,36.66-16.039c0,0,21.349,2.761,36.49,17.438
		c0,0,7.587,46.064-36.275,65.196C50.215,96.315,8.914,80.973,13.34,29.721z"/>
	<polygon fill="#FFFFFF" points="50,6.453 50.654,8.468 52.772,8.468 51.06,9.712 51.714,11.728 50,10.482 48.286,11.728 
		48.941,9.712 47.227,8.468 49.345,8.468 	"/>
	<g>
		<g>
			<path fill="#004FFF" d="M24.126,36.979c-0.5,0.29-1.494,0.728-2.69,0.731c-1.341,0.004-2.468-0.437-3.331-1.265
				c-0.763-0.732-1.221-1.814-1.218-3.192c0.006-2.644,1.591-5.882,4.358-7.61c0.955-0.596,1.73-0.71,2.104-0.635
				c-0.082,0.605-0.124,0.904-0.206,1.498c-0.465-0.087-1.038-0.034-1.877,0.432c-2.023,1.123-3.27,3.434-3.237,5.856
				c0.033,2.451,1.391,3.796,3.44,3.664c0.743-0.048,1.248-0.223,1.501-0.429c-0.062-1.5-0.092-2.25-0.153-3.75
				c-0.703,0.17-1.054,0.258-1.752,0.44c-0.017-0.48-0.025-0.722-0.042-1.202c1.123-0.364,1.689-0.537,2.828-0.863
				C23.961,33.183,24.016,34.449,24.126,36.979z"/>
			<path fill="#004FFF" d="M26.369,22.973c0.16,3.45,0.24,5.174,0.4,8.624c0.151,3.265,1.093,4.605,2.275,4.554
				c1.314-0.058,2.087-1.688,1.928-5.297c-0.17-3.865-0.255-5.797-0.425-9.663c0.464-0.175,0.697-0.259,1.165-0.424
				c0.166,3.905,0.249,5.857,0.414,9.762c0.218,5.142-1.126,7.251-3.047,7.251c-1.814,0-3.258-1.645-3.457-5.994
				c-0.151-3.305-0.227-4.956-0.377-8.26C25.692,23.299,25.917,23.188,26.369,22.973z"/>
			<path fill="#004FFF" d="M38.745,28.754c-1.404,0.145-2.105,0.23-3.5,0.421c0.095,2.558,0.141,3.837,0.235,6.395
				c1.541-0.055,2.313-0.079,3.857-0.119c0.023,0.809,0.035,1.214,0.058,2.023c-1.996,0.007-2.992,0.011-4.987,0.021
				c-0.272-6.958-0.409-10.435-0.682-17.393c1.954-0.602,2.944-0.856,4.936-1.271c0.023,0.808,0.034,1.211,0.057,2.02
				c-1.509,0.282-2.26,0.447-3.751,0.826c0.083,2.242,0.124,3.362,0.207,5.604c1.399-0.233,2.102-0.337,3.512-0.514
				C38.709,27.563,38.722,27.959,38.745,28.754z"/>
			<path fill="#004FFF" d="M40.421,18.75c0.599-0.358,1.463-0.641,2.292-0.749c1.286-0.168,2.125,0.262,2.722,1.315
				c0.473,0.835,0.754,2.167,0.769,3.683c0.025,2.594-0.718,4.343-1.667,5.084c0,0.035,0.001,0.053,0.002,0.087
				c0.709,0.487,1.141,1.873,1.379,3.903c0.32,2.727,0.552,4.626,0.743,5.385c-0.474,0-0.712,0.001-1.187,0.002
				c-0.151-0.552-0.376-2.242-0.656-4.664c-0.31-2.68-0.805-3.68-1.869-3.704c-0.441,0.026-0.661,0.04-1.102,0.07
				c0.072,3.321,0.108,4.982,0.18,8.303c-0.458,0.001-0.688,0.002-1.146,0.004C40.697,29.983,40.605,26.238,40.421,18.75z
				 M41.807,27.286c0.48-0.04,0.72-0.058,1.201-0.092c1.257-0.088,2.037-1.601,2.008-3.836c-0.033-2.524-0.932-3.577-2.183-3.444
				c-0.573,0.061-0.989,0.238-1.178,0.378C41.716,23.09,41.746,24.488,41.807,27.286z"/>
			<path fill="#004FFF" d="M47.862,17.988c0.61-0.285,1.488-0.449,2.323-0.442c1.294,0.011,2.122,0.563,2.697,1.696
				c0.456,0.899,0.712,2.257,0.696,3.772c-0.027,2.591-0.805,4.278-1.77,4.961c0,0.035-0.001,0.054-0.001,0.089
				c0.7,0.541,1.104,1.958,1.302,4.001c0.265,2.744,0.457,4.641,0.632,5.396c-0.474,0-0.709-0.001-1.183-0.002
				c-0.141-0.555-0.333-2.256-0.564-4.711c-0.256-2.716-0.729-3.761-1.795-3.854c-0.443-0.002-0.664-0.001-1.107,0.001
				c0.006,3.425,0.009,5.137,0.015,8.561c-0.458,0-0.688,0-1.146,0.001C47.922,29.67,47.901,25.775,47.862,17.988z M49.088,26.96
				c0.483-0.003,0.725-0.003,1.208,0c1.261,0.007,2.071-1.457,2.088-3.708c0.019-2.542-0.857-3.715-2.117-3.741
				c-0.574-0.012-0.998,0.118-1.192,0.237C49.08,22.633,49.083,24.075,49.088,26.96z"/>
			<path fill="#004FFF" d="M59.88,28.668c-1.406-0.133-2.112-0.188-3.524-0.275c-0.051,2.791-0.074,4.186-0.125,6.976
				c1.546,0.025,2.317,0.042,3.861,0.082c-0.022,0.81-0.034,1.214-0.057,2.024c-1.996-0.007-2.993-0.008-4.989-0.012
				c0.116-7.792,0.175-11.692,0.293-19.484c2.018,0.208,3.021,0.358,5.017,0.754c-0.022,0.812-0.033,1.219-0.056,2.031
				c-1.512-0.27-2.271-0.38-3.796-0.552c-0.044,2.445-0.065,3.668-0.109,6.114c1.419,0.106,2.127,0.173,3.539,0.336
				C59.912,27.465,59.901,27.865,59.88,28.668z"/>
			<path fill="#004FFF" d="M62.095,19.356c0.607-0.108,1.468-0.028,2.278,0.2c1.255,0.353,2.038,1.072,2.561,2.198
				c0.416,0.896,0.625,2.113,0.57,3.407c-0.094,2.214-0.897,3.535-1.865,4.006c-0.001,0.031,0,0.048-0.001,0.079
				c0.673,0.569,1.029,1.846,1.17,3.62c0.188,2.383,0.333,3.999,0.489,4.643c-0.474-0.003-0.71-0.004-1.184-0.006
				c-0.125-0.482-0.267-1.961-0.426-4.126c-0.176-2.395-0.613-3.383-1.661-3.594c-0.437-0.055-0.655-0.081-1.093-0.131
				c-0.107,3.134-0.162,4.701-0.27,7.835c-0.458-0.002-0.684-0.002-1.142-0.004C61.751,30.232,61.864,26.604,62.095,19.356z
				 M62.994,27.877c0.477,0.067,0.716,0.102,1.19,0.174c1.239,0.19,2.074-0.964,2.153-2.925c0.09-2.214-0.717-3.452-1.946-3.779
				c-0.558-0.149-0.978-0.132-1.171-0.069C63.13,23.918,63.085,25.237,62.994,27.877z"/>
			<path fill="#004FFF" d="M76.48,31.089c-0.182,4.373-2.132,6.69-4.395,6.69c-2.341,0-3.84-3.35-3.623-8.304
				c0.228-5.198,2.144-7.954,4.456-6.845C75.282,23.763,76.637,27.319,76.48,31.089z M69.689,29.665
				c-0.153,3.397,0.737,6.481,2.536,6.567c1.811,0.086,2.941-2.369,3.075-5.396c0.117-2.651-0.637-5.882-2.504-6.683
				C70.942,23.357,69.847,26.173,69.689,29.665z"/>
			<path fill="#004FFF" d="M77.609,35.7c0.492,0.476,1.223,0.859,2.005,0.911c1.16,0.076,1.846-0.546,1.858-1.518
				c0.012-0.9-0.44-1.536-1.571-2.412c-1.343-1.04-2.191-2.367-2.127-4.063c0.071-1.875,1.2-2.624,2.763-1.527
				c0.822,0.578,1.403,1.248,1.755,1.733c-0.114,0.302-0.171,0.458-0.289,0.778c-0.261-0.331-0.792-0.969-1.528-1.427
				c-1.109-0.69-1.572,0-1.598,0.777c-0.035,1.063,0.458,1.82,1.604,2.811c1.403,1.213,2.127,2.147,2.127,3.45
				c0,1.369-1.011,2.552-3.102,2.55c-0.855-0.001-1.779-0.326-2.234-0.776C77.408,36.466,77.476,36.208,77.609,35.7z"/>
		</g>
	</g>
	<path fill="#28A3E0" d="M31.603,83.625c0-0.156-0.023-0.307-0.07-0.449c-0.046-0.144-0.133-0.305-0.263-0.482
		c-0.129-0.181-0.314-0.375-0.554-0.588l-2.603-2.266c-0.61-0.516-1.034-0.889-1.274-1.119c-0.489-0.47-0.87-0.907-1.142-1.313
		s-0.47-0.816-0.596-1.236c-0.124-0.42-0.186-0.865-0.186-1.335c0-0.562,0.099-1.111,0.297-1.649
		c0.198-0.538,0.495-1.044,0.891-1.514c0.396-0.47,0.921-0.874,1.575-1.215c0.654-0.341,1.354-0.573,2.1-0.698
		s1.515-0.186,2.307-0.186c1.556,0,3.251,0.179,5.084,0.539c0.028,0.634,0.06,1.218,0.097,1.747
		c0.037,0.529,0.125,1.458,0.263,2.784c-0.847-0.342-1.622-0.578-2.321-0.712c-0.7-0.133-1.303-0.2-1.81-0.2
		c-0.718,0-1.315,0.134-1.789,0.4c-0.475,0.267-0.712,0.598-0.712,0.995c0,0.184,0.037,0.364,0.111,0.538
		c0.074,0.175,0.212,0.38,0.415,0.616c0.203,0.233,0.47,0.491,0.802,0.772c0.331,0.28,0.851,0.697,1.561,1.251l0.995,0.787
		c0.295,0.238,0.612,0.529,0.954,0.87c0.34,0.342,0.635,0.677,0.884,1.009c0.249,0.331,0.44,0.635,0.574,0.912
		c0.133,0.274,0.232,0.554,0.296,0.835c0.065,0.282,0.098,0.582,0.098,0.905c0,0.828-0.199,1.619-0.594,2.369
		c-0.396,0.751-1.006,2.396-1.686,1.851c-1.321-1.063,0.361-0.056,1.027,0.536c2.626,2.337,0.179-0.709-0.788-0.709
		c-1.492,0-0.496-1.482-2.771-1.915"/>
	<path fill="#28A3E0" d="M42.562,75.627c1.436,0.02,2.448,0.027,3.038,0.027c0.737,0,1.717-0.008,2.941-0.027l-0.411,5.871
		c-0.083,1.106-0.144,2.142-0.185,3.109c-0.041,0.966-0.062,1.635-0.062,2.003c0,0.7,0.051,1.284,0.152,1.754
		c0.102,0.47,0.286,0.869,0.552,1.195c0.267,0.328,0.637,0.573,1.111,0.739s0.968,0.249,1.483,0.249c0.441,0,0.856-0.06,1.242-0.182
		c0.305-0.098,0.575-0.235,0.814-0.41c0.212-0.166,0.396-0.357,0.554-0.577c0.191-0.263,0.362-0.592,0.51-0.986
		c0.147-0.373,0.257-0.855,0.332-1.447c0.082-0.604,0.192-1.976,0.331-4.113c0.119-1.82,0.211-3.487,0.276-5.001
		c0.056-1.469,0.105-2.204,0.151-2.204c1.392,0,2.488,0,3.289,0h2.805l-0.673,9.809c-0.008,0.185-0.014,0.337-0.014,0.456
		c-0.036,1.917-0.152,3.268-0.352,4.055c-0.198,0.788-0.526,1.472-0.988,2.052c-0.461,0.581-1.134,1.104-2.019,1.567
		c-0.884,0.466-1.887,0.795-3.012,0.988c-1.124,0.193-2.262,1.714-3.414,1.714c-1.032,0-2.026-0.073-2.984-0.221
		c-0.884-0.147-1.681-1.785-2.391-2.067c-0.709-0.28-1.327-0.608-1.851-0.986c-0.479-0.351-0.848-0.706-1.106-1.07
		s-0.461-0.8-0.608-1.307c-0.166-0.57-0.249-1.183-0.249-1.838c0-0.22,0.009-0.553,0.028-1.001c0.019-0.447,0.06-1.089,0.125-1.926
		l0.18-2.212c0.046-0.579,0.097-1.432,0.153-2.556L42.562,75.627z"/>
	<path fill="#28A3E0" d="M78.48,71.573c0.167,0.167,0.316,0.344,0.45,0.528c0.259,0.36-0.22-0.083-0.076,0.4
		c0.143,0.483-0.712,0.204-0.712,0.756c0,0.617-0.332,0.484-0.489,1.023s0.069,0.416-0.267,0.89
		c-0.337,0.474-0.468,0.766-0.979,1.112c-0.511,0.345,0.921-0.359,0,0l-0.846,1.067c0.202,0.489-2.497,2.474-2.269,2.979
		l-0.667,0.489c0.082,0.176-1.191,0.906-0.979,1.424c-1.52-0.02,0.524,0,0,0c-0.663,0-0.089,0.223-1.274,1.305
		c-0.37,0.338-1.616,1.319,0,0c0.439-0.356-2.232,2.134-0.416-0.015c0.446-0.527,0.98-0.235,0.547-1.414 M70.505,82.119l-1.424-3.91
		c0.496,0.092,0.984,0.14,1.464,0.14c0.672,0,1.283-0.104,1.831-0.306c0.547-0.202,0.962-0.515,1.242-0.938
		c0.281-0.424,0.423-0.872,0.423-1.342c0-0.395-0.107-0.742-0.32-1.042c-0.211-0.299-0.545-0.522-1-0.67
		c-0.456-0.147-1.158-0.222-2.107-0.222c-0.322,0-0.656,0.008-1.001,0.021s-0.748,0.024-1.209,0.034
		c-0.118,1.89-0.223,4.191-0.314,6.907c-0.09,2.719-0.09,2.719-0.543,5.424c0.254-1.519-2.882,2.735-3.342,2.735
		c-0.535,0-0.791-0.178-2.184-0.159c0.175-1.62,0.313-3.081,0.415-4.381c0.102-1.298,0.19-2.804,0.263-4.518
		c0.075-1.712,0.131-3.519,0.167-5.421s0.056-3.416,0.056-4.539c1.151,0.027,2.082,0.042,2.791,0.042
		c0.737,0,1.635-0.021,2.694-0.062c1.058-0.042,2.09-0.064,3.094-0.064c1.179,0,2.228,0.048,3.149,0.14
		c0.689,0.063,1.317,0.197,1.885,0.4c0.565,0.203,1.043,0.448,1.429,0.739c0.189,0.141,0.36,0.289,0.518,0.444"/>
	<text transform="matrix(1 0 0 1 41.2148 72.8389)" fill="#2358B7" font-family="'ErasITC-Bold'" font-size="10.0287">DEL</text>
	<polygon fill="#2358B7" points="51.17,34.583 54.998,46.36 67.383,46.36 57.364,53.641 61.189,65.419 51.17,58.139 41.152,65.419 
		44.979,53.641 34.96,46.36 47.344,46.36 	"/>
</g>
</svg>
