<?xml version="1.0" encoding="utf-8"?>
<!-- Generator: Adobe Illustrator 16.0.0, SVG Export Plug-In . SVG Version: 6.00 Build 0)  -->
<!DOCTYPE svg PUBLIC "-//W3C//DTD SVG 1.1//EN" "http://www.w3.org/Graphics/SVG/1.1/DTD/svg11.dtd">
<svg version="1.1" id="Capa_1" xmlns="http://www.w3.org/2000/svg" xmlns:xlink="http://www.w3.org/1999/xlink" x="0px" y="0px"
	 width="100px" height="100px" viewBox="0 0 100 100" enable-background="new 0 0 100 100" xml:space="preserve">
<image display="none" overflow="visible" width="483" height="470" xlink:href="SaprissaLogo.png"  transform="matrix(0.1972 0 0 0.1972 3.0488 3.1636)">
</image>
<path fill="#66003A" d="M50.667,6.67c0,0,37.491,0.833,40.158,41.333c0,0,2.166,26.336-25.167,39.166c0,0-23,10.166-43.167-6
	c0,0-15.167-13.174-15.667-31.17c0,0,0.091,20.163,14.925,32.163c0,0,16.333,17.598,44.5,7.681c0,0,29.162-12.915,26.912-41.832
	C93.162,48.012,91.004,8.492,50.667,6.67z"/>
<g>
	<path fill="#66003A" d="M17.659,40.928c0,0,0.239-0.765,0.686-2.199c0.121-0.356,0.216-0.766,0.395-1.193
		c0.182-0.426,0.38-0.892,0.594-1.396c0.222-0.499,0.428-1.053,0.708-1.612c0.302-0.548,0.623-1.132,0.961-1.748
		c1.415-2.415,3.371-5.271,6.273-7.926c2.874-2.657,6.617-5.188,11.176-6.867c4.554-1.647,9.903-2.398,15.456-1.721
		c0.696,0.058,1.378,0.244,2.076,0.361c0.697,0.158,1.391,0.214,2.104,0.46c1.35,0.431,2.727,0.763,4.084,1.401
		c2.776,1.067,5.329,2.671,7.769,4.512c2.431,1.866,4.545,4.182,6.438,6.695c1.841,2.563,3.299,5.428,4.419,8.446
		c1.065,3.044,1.653,6.264,1.859,9.521c0.139,3.286-0.234,6.507-0.982,9.785c-0.828,3.034-2.067,6.231-3.734,9.032
		c-1.723,2.785-3.771,5.363-6.163,7.563c-2.429,2.148-5.087,4.013-7.956,5.409c-2.89,1.33-5.887,2.382-8.954,2.878
		c-3.06,0.452-6.135,0.631-9.095,0.233c-1.493-0.09-2.924-0.471-4.352-0.75c-0.199-0.046-0.31-0.056-0.58-0.13l-0.501-0.164
		l-0.998-0.326c-0.665-0.234-1.32-0.393-1.979-0.686c-5.342-2.154-9.68-5.425-12.872-9.174c-3.179-3.754-5.201-7.844-6.392-11.602
		c-1.216-3.77-1.509-7.235-1.551-10.042c0.009-0.705,0.017-1.373,0.025-2c0.032-0.626,0.126-1.209,0.179-1.753
		c0.062-0.543,0.118-1.046,0.17-1.507c0.056-0.459,0.175-0.867,0.246-1.237l0.489-2.26L17.659,40.928z M17.852,40.983
		c0,0.001-0.15,0.784-0.433,2.254c-0.061,0.369-0.17,0.774-0.215,1.231c-0.041,0.458-0.085,0.958-0.133,1.498
		c-0.04,0.54-0.119,1.119-0.136,1.738c0.007,0.621,0.014,1.28,0.022,1.978c0.005,0.348,0.01,0.705,0.015,1.072
		c0.041,0.364,0.082,0.738,0.124,1.12c0.102,0.763,0.135,1.57,0.303,2.392c0.181,0.817,0.369,1.669,0.565,2.552
		c0.255,0.866,0.565,1.751,0.859,2.669c1.329,3.615,3.479,7.484,6.695,10.935c3.221,3.4,7.507,6.436,12.444,8.282
		c0.604,0.256,1.309,0.41,1.965,0.622l1.006,0.299l0.506,0.15l0.455,0.091c1.346,0.252,2.693,0.608,4.096,0.68
		c2.783,0.361,5.667,0.168,8.533-0.27c2.879-0.442,5.701-1.406,8.432-2.631c2.706-1.298,5.24-3.006,7.563-5.001
		c2.29-2.043,4.26-4.452,5.935-7.067c1.632-2.68,2.781-5.472,3.697-8.604c0.701-2.965,1.128-6.142,1.023-9.249
		c-0.163-3.112-0.687-6.2-1.674-9.131c-1.042-2.905-2.407-5.675-4.149-8.162c-1.795-2.437-3.804-4.695-6.129-6.522
		c-2.32-1.797-4.807-3.396-7.427-4.435c-1.257-0.62-2.667-0.982-4.004-1.426c-0.622-0.225-1.34-0.313-1.999-0.477
		c-0.674-0.128-1.334-0.326-2.009-0.397c-5.381-0.78-10.628-0.171-15.141,1.346c-4.519,1.542-8.271,3.969-11.164,6.553
		c-2.943,2.562-4.906,5.399-6.299,7.807c-0.337,0.612-0.656,1.192-0.956,1.737c-0.279,0.555-0.482,1.103-0.702,1.598
		c-0.213,0.499-0.41,0.96-0.59,1.382c-0.177,0.424-0.273,0.836-0.394,1.191C18.089,40.22,17.853,40.981,17.852,40.983z"/>
</g>
<polygon fill="#66003A" points="31.167,31.5 38.333,23.833 60.667,23.833 67.833,31.5 67.833,39.833 55.5,39.833 55.5,33.5 
	42.833,33.5 42.833,43.333 60.5,43.333 68.083,50.917 68.083,66.667 60.708,74.042 38.833,74.042 31.167,66.334 31.167,58.334 
	43,58.334 43,64.834 55.333,64.834 55.333,53.334 38.833,53.334 31.167,45.833 "/>
</svg>
