<?xml version="1.0" encoding="utf-8"?>
<!-- Generator: Adobe Illustrator 16.0.0, SVG Export Plug-In . SVG Version: 6.00 Build 0)  -->
<!DOCTYPE svg PUBLIC "-//W3C//DTD SVG 1.1//EN" "http://www.w3.org/Graphics/SVG/1.1/DTD/svg11.dtd">
<svg version="1.1" id="Capa_1" xmlns="http://www.w3.org/2000/svg" xmlns:xlink="http://www.w3.org/1999/xlink" x="0px" y="0px"
	 width="100px" height="100px" viewBox="0 0 100 100" enable-background="new 0 0 100 100" xml:space="preserve">
<path fill="#31BDF4" stroke="#1B1464" stroke-miterlimit="10" d="M21.5,18.833v48.5L50.15,91.75l27.184-23.167v-49.75
	c0,0-12.321,3.333-27.917,0C33.82,15.5,21.5,18.833,21.5,18.833z"/>
<path fill="#FFFFFF" stroke="#1B1464" stroke-miterlimit="10" d="M24,22.032v44.156l26.085,22.23l24.749-21.093V22.032
	c0,0-11.218,3.035-25.417,0C35.217,18.997,24,22.032,24,22.032z"/>
<polygon fill="#29ABE2" stroke="#1B1464" stroke-miterlimit="10" points="49.139,33.88 53.768,43.258 64.116,44.762 56.628,52.063 
	58.396,62.369 49.139,57.502 39.882,62.369 41.65,52.063 34.161,44.762 44.51,43.258 "/>
</svg>
